<?xml version="1.0" encoding="UTF-8"?>
<svg version="1.1" viewBox="0 0 64 64" xmlns="http://www.w3.org/2000/svg">
	<circle cx="32" cy="32" r="32" fill="#000000" stroke="#000000" stroke-width="3" style="fill:#000000;fill-opacity:1;stroke:none"/>
	<g style="fill:#ffffff">
		<path d="m26.17 39.534h-1.728v-6.7h-1.617v3.349h-1.732v-5.078h5.081z"/>
		<path d="m29.518 42.886h-8.43v-5.081h1.732v3.349h4.965v-13.488h1.732z"/>
		<path d="m26.17 49.582h-1.732v-5.081h6.7v-10.047h5.081v11.779h-1.732v-10.046h-1.616v10.046h-6.7z"/>
		<path d="m39.566 29.488h-5.081v-6.7h-3.349v-8.43h8.43v1.732h-6.7v4.965h3.349v6.7h3.349z"/>
		<path d="m26.17 22.792h-5.081v-8.43h6.7v-3.293h8.43v1.732h-6.7v3.293h-6.7v4.965h3.349z"/>
		<path d="m22.822 26.142h-5.081v-6.755h1.732v5.023h3.349z"/>
		<path d="m22.822 49.582h-1.732v-3.349h-3.349v-6.7h-3.349v-5.081h5.081v1.732h-3.349v1.617h3.349v6.7h3.349z"/>
		<path d="m49.612 29.488h-5.081v-6.7h-3.348v-8.43h1.732v6.7h3.349v6.7h3.349z"/>
		<path d="m49.612 36.186h-5.081v-3.349h-3.349v-6.7h-3.349v-6.7h-3.349v-1.732h5.081v6.7h3.349v6.7h3.349v3.349h1.617v-3.349h1.732z"/>
		<path d="m46.264 42.884h-8.43v-10.107h-6.7v-6.635h-4.965v3.349h-6.7v3.286h-5.081v-5.02h1.732v3.286h1.617v-3.286h6.7v-3.349h8.427v6.635h6.7v10.109h4.965v-1.617h-3.349v-5.081h1.732v3.349h3.349z"/>
		<path d="m29.52 22.79h-1.732v-3.349h-3.349v-1.732h5.081z"/>
		<path d="m36.218 52.932h-8.43v-5.081h13.4v-1.617h-3.349v-1.732h5.081v5.081h-13.4v1.617h6.7z"/>
	</g>
</svg>